<?xml version="1.0" standalone="no"?>
<!DOCTYPE svg PUBLIC "-//W3C//DTD SVG 20010904//EN"
 "http://www.w3.org/TR/2001/REC-SVG-20010904/DTD/svg10.dtd">
<svg version="1.0" xmlns="http://www.w3.org/2000/svg"
 width="911.000000pt" height="379.000000pt" viewBox="0 0 911.000000 379.000000"
 preserveAspectRatio="xMidYMid meet">

<g transform="translate(0.000000,379.000000) scale(0.100000,-0.100000)"
fill="#000000" stroke="none">
<path d="M0 1895 l0 -1895 4555 0 4555 0 0 1895 0 1895 -4555 0 -4555 0 0
-1895z m4048 1063 l2 -408 174 0 175 0 29 -52 c31 -55 57 -103 135 -248 148
-275 164 -301 175 -288 10 13 53 104 197 415 l80 172 233 3 c129 2 235 1 237
-2 2 -3 -25 -63 -61 -133 -36 -70 -63 -127 -61 -127 2 0 18 22 36 50 44 68
144 156 217 190 200 96 456 74 617 -52 l37 -30 0 51 0 51 210 0 210 0 0 -600
0 -600 -202 2 -203 3 -3 63 c-2 34 -5 62 -8 62 -3 0 -27 -18 -52 -41 -91 -80
-204 -119 -343 -119 -171 0 -288 49 -410 170 -127 126 -183 267 -183 465 0
114 16 197 54 281 38 87 10 40 -78 -128 -49 -95 -168 -324 -264 -508 -96 -184
-215 -411 -263 -505 -49 -93 -110 -210 -136 -260 l-48 -90 -235 -3 c-161 -2
-236 1 -236 8 0 6 16 40 35 76 19 36 110 209 202 386 152 294 165 323 156 349
-6 15 -45 88 -86 161 -41 73 -122 216 -180 318 -57 102 -115 205 -128 230
l-24 45 -5 -480 -5 -480 -205 0 -205 0 -3 1008 -2 1007 207 -2 208 -3 3 -407z
m4370 305 c58 -35 109 -108 118 -169 22 -149 -93 -284 -241 -284 -69 0 -119
20 -169 68 -138 132 -83 352 104 413 48 16 139 3 188 -28z m-7358 -359 c0
-319 2 -385 14 -382 7 2 102 109 210 238 109 129 254 301 322 383 l125 147
266 0 c251 0 265 -1 252 -17 -8 -10 -79 -94 -159 -188 -362 -426 -576 -679
-588 -696 -17 -24 -32 -5 244 -315 514 -579 624 -704 624 -714 0 -6 -104 -10
-294 -10 l-295 0 -98 113 c-55 61 -130 148 -169 193 -324 376 -438 503 -446
498 -5 -3 -8 -179 -8 -402 l1 -397 -216 0 -215 0 0 958 c0 526 0 962 0 967 0
6 78 10 215 10 l215 0 0 -386z m1825 -325 c72 -13 153 -48 216 -94 l49 -35 0
50 0 50 210 0 210 0 0 -600 0 -600 -202 2 -203 3 -3 63 c-2 34 -6 62 -9 62 -3
0 -22 -15 -43 -34 -159 -144 -424 -169 -631 -60 -132 70 -265 246 -298 395
-36 162 -18 337 50 478 76 156 229 282 387 316 73 16 192 18 267 4z m4773 -5
c97 -20 210 -75 267 -132 24 -24 59 -73 77 -110 l33 -67 3 -457 3 -458 -203 2
-203 3 -5 370 -5 371 -26 49 c-82 160 -285 162 -394 4 l-30 -42 -5 -376 -5
-376 -205 0 -205 0 -3 598 -2 597 210 0 210 0 0 -55 c0 -30 3 -55 6 -55 3 0
24 15 45 34 50 42 144 93 195 105 61 14 158 12 242 -5z m840 -621 l-3 -598
-205 0 -205 0 -3 598 -2 597 210 0 210 0 -2 -597z m-563 -1368 c0 -169 0 -170
-22 -173 l-23 -3 0 176 0 176 23 -3 c22 -3 22 -4 22 -173z m-1239 69 c30 -48
59 -83 63 -78 5 5 32 44 60 87 79 118 86 110 86 -88 0 -153 -1 -160 -20 -160
-18 0 -20 8 -25 110 l-5 109 -44 -67 c-29 -44 -50 -67 -60 -65 -9 2 -35 32
-58 68 l-43 65 0 -97 c0 -110 -4 -128 -31 -128 -18 0 -19 10 -19 165 0 158 1
165 20 165 14 0 36 -25 76 -86z m1664 61 c0 -20 -5 -25 -24 -25 -13 0 -26 6
-29 13 -7 22 4 37 29 37 19 0 24 -5 24 -25z m-925 -69 c25 -10 32 -10 40 1 6
8 18 11 28 7 16 -6 17 -19 15 -123 -3 -112 -4 -116 -25 -119 -16 -2 -23 2 -23
13 0 15 -2 15 -22 1 -55 -39 -138 -8 -164 61 -26 66 -1 132 59 158 39 17 54
18 92 1z m920 -116 c0 -112 -1 -115 -22 -118 -23 -3 -23 -2 -23 118 0 120 0
121 23 118 21 -3 22 -6 22 -118z"/>
<path d="M5913 2222 c-104 -37 -164 -109 -185 -221 -40 -215 168 -389 372
-312 102 39 160 107 178 211 18 96 -11 193 -76 258 -72 72 -192 99 -289 64z"/>
<path d="M2792 2222 c-72 -26 -122 -69 -155 -133 -121 -236 100 -492 343 -400
69 26 112 61 146 118 27 44 29 56 29 143 0 108 -14 147 -74 207 -73 74 -190
100 -289 65z"/>
<path d="M7349 593 c-25 -29 -30 -54 -19 -88 24 -72 116 -67 134 8 8 31 6 42
-11 65 -25 34 -81 42 -104 15z"/>
</g>
</svg>
